<?xml version="1.0" encoding="utf-8"?>
<!-- Generator: Adobe Illustrator 26.5.2, SVG Export Plug-In . SVG Version: 6.00 Build 0)  -->
<svg version="1.1" id="Livello_1" xmlns="http://www.w3.org/2000/svg" xmlns:xlink="http://www.w3.org/1999/xlink" x="0px" y="0px"
	 viewBox="0 0 70.9 76.8" style="enable-background:new 0 0 70.9 76.8;" xml:space="preserve">
<g>
	<g>
		<path d="M0.4,38.3c0-1.5,1.5-2.2,2.8-2.2c1.4,0,2.7,0.7,3,2.2H5c-0.2-0.9-1.1-1.2-1.8-1.2c-0.6,0-1.5,0.3-1.5,1.1
			c0,0.6,0.5,1,1.2,1.1l0.9,0.2c1.2,0.3,2.6,0.7,2.6,2.3c0,1.5-1.5,2.3-3,2.3c-1.8,0-3-1-3.2-2.6h1.2c0.2,1.1,0.9,1.6,2,1.6
			c1,0,1.7-0.5,1.7-1.2c0-0.8-0.8-1.1-1.6-1.3l-1-0.2C1.5,40.2,0.4,39.6,0.4,38.3"/>
		<path d="M11.4,40.2c-0.1-0.7-0.7-1.1-1.4-1.1c-0.8,0-1.5,0.6-1.5,2c0,1.4,0.8,2.1,1.5,2.1c0.7,0,1.3-0.4,1.5-1.1h1.1
			c-0.2,1.2-1.4,2.1-2.6,2.1c-1.7,0-2.7-1.3-2.7-3c0-1.7,1.1-3,2.8-3c1.3,0,2.3,0.9,2.5,2.1H11.4z"/>
		<path d="M15.3,44.2c-1.4,0-1.9-0.8-1.9-2.2v-3.7h1.1v3.4c0,0.8,0.1,1.6,1.1,1.6c0.9,0,1.4-0.7,1.4-1.8v-3.1h1.1V44h-1.1v-0.8
			C16.7,43.8,16.2,44.2,15.3,44.2"/>
		<path d="M23.6,41.2c0-1.4-0.8-2.1-1.6-2.1c-0.8,0-1.6,0.6-1.6,2.1c0,1.4,0.8,2.1,1.6,2.1C22.8,43.2,23.6,42.6,23.6,41.2
			 M21.9,44.2c-1.4,0-2.8-0.9-2.8-3c0-2.1,1.4-3,2.8-3c1.4,0,2.8,0.9,2.8,3C24.7,43.2,23.3,44.2,21.9,44.2"/>
	</g>
	<rect x="25.7" y="36.3" width="1.1" height="7.8"/>
	<g>
		<path d="M29.2,42.5c0,0.5,0.4,0.9,1.1,0.9c0.9,0,1.6-0.5,1.6-1.6v-0.4C30.1,41.5,29.2,41.7,29.2,42.5 M31.9,40.5v-0.1
			c0-1-0.5-1.4-1.2-1.4c-0.8,0-1.2,0.4-1.3,1.1h-1.1c0.1-1.2,1.1-2,2.4-2c1.5,0,2.3,0.7,2.3,2.4c0,0.1,0,1.1,0,1.4
			c0,0.9,0.1,1.6,0.2,2.1h-1.1c0-0.2-0.1-0.4-0.1-0.8c-0.3,0.6-1,0.9-1.9,0.9c-1.2,0-2.1-0.6-2.1-1.7C28,41.1,29.6,40.7,31.9,40.5"
			/>
	</g>
	<rect x="0.7" y="47.1" width="1.2" height="7.8"/>
	<g>
		<path d="M6.5,49c1.4,0,1.9,0.9,1.9,2.2v3.6H7.3v-3.3c0-0.8-0.1-1.6-1.2-1.6c-1,0-1.4,0.7-1.4,1.8v3.1H3.6v-5.8h1.1V50
			C5,49.4,5.6,49,6.5,49"/>
		<path d="M11.2,47.7v1.5h1.1V50h-1.1v3.3c0,0.6,0.1,0.7,0.7,0.7h0.5v0.9h-0.8c-1.2,0-1.4-0.3-1.4-1.5V50H9.2v-0.8h0.9v-1.5H11.2z"
			/>
		<path d="M17.2,51.5c0-0.9-0.6-1.5-1.6-1.5c-0.9,0-1.5,0.5-1.7,1.5H17.2z M18.3,53.2c-0.3,1-1.1,1.8-2.6,1.8c-1.9,0-2.9-1.4-2.9-3
			c0-1.8,1.2-3,2.8-3c1.8,0,2.8,1.5,2.7,3.3H14c0.1,1.1,0.8,1.7,1.7,1.7c0.8,0,1.3-0.3,1.5-0.9H18.3z"/>
		<path d="M22,50.3c-0.9,0-1.3,0.4-1.3,1.6v3h-1.1v-5.8h1.1v1c0.3-0.7,0.9-1,1.6-1c0.1,0,0.2,0,0.3,0v1.2
			C22.3,50.3,22.2,50.3,22,50.3"/>
		<path d="M26.4,49c1.4,0,1.9,0.9,1.9,2.2v3.6h-1.1v-3.3c0-0.8-0.1-1.6-1.2-1.6c-1,0-1.4,0.7-1.4,1.8v3.1h-1.1v-5.8h1.1V50
			C24.9,49.4,25.5,49,26.4,49"/>
		<path d="M30.6,53.3c0,0.5,0.4,0.9,1.1,0.9c0.9,0,1.6-0.5,1.6-1.6v-0.4C31.5,52.3,30.6,52.6,30.6,53.3 M33.3,51.3v-0.1
			c0-1-0.5-1.4-1.2-1.4c-0.8,0-1.2,0.4-1.3,1.1h-1.1c0.1-1.2,1.1-2,2.4-2c1.5,0,2.3,0.7,2.3,2.4c0,0.1,0,1.1,0,1.4
			c0,0.9,0.1,1.6,0.2,2.1h-1.1c0-0.2-0.1-0.4-0.1-0.8c-0.3,0.6-1,0.9-1.9,0.9c-1.2,0-2.1-0.6-2.1-1.7C29.4,52,31,51.6,33.3,51.3"/>
	</g>
	<polygon points="38.6,50.1 35.6,50.1 35.6,49.1 40,49.1 40,50.1 36.8,54 40.1,54 40.1,54.9 35.4,54.9 35.4,54 	"/>
	<path d="M42.2,54.9h-1.1v-5.8h1.1V54.9z M42.2,48.4h-1.1v-1.2h1.1V48.4z"/>
	<g>
		<path d="M47.8,52.1c0-1.4-0.8-2.1-1.6-2.1c-0.8,0-1.6,0.6-1.6,2.1c0,1.4,0.8,2.1,1.6,2.1C47,54.1,47.8,53.5,47.8,52.1 M46.2,55.1
			c-1.4,0-2.8-0.9-2.8-3c0-2.1,1.4-3,2.8-3c1.4,0,2.8,0.9,2.8,3C49,54.1,47.5,55.1,46.2,55.1"/>
		<path d="M53.1,49c1.4,0,1.9,0.9,1.9,2.2v3.6h-1.1v-3.3c0-0.8-0.1-1.6-1.2-1.6c-1,0-1.4,0.7-1.4,1.8v3.1h-1.1v-5.8h1.1V50
			C51.6,49.4,52.2,49,53.1,49"/>
		<path d="M57.3,53.3c0,0.5,0.4,0.9,1.1,0.9c0.9,0,1.6-0.5,1.6-1.6v-0.4C58.2,52.3,57.3,52.6,57.3,53.3 M60,51.3v-0.1
			c0-1-0.5-1.4-1.2-1.4c-0.8,0-1.2,0.4-1.3,1.1h-1.1c0.1-1.2,1.1-2,2.4-2c1.5,0,2.3,0.7,2.3,2.4c0,0.1,0,1.1,0,1.4
			c0,0.9,0.1,1.6,0.2,2.1h-1.1c0-0.2-0.1-0.4-0.1-0.8c-0.3,0.6-1,0.9-1.9,0.9c-1.2,0-2.1-0.6-2.1-1.7C56.1,52,57.7,51.6,60,51.3"/>
	</g>
	<rect x="62.5" y="47.1" width="1.1" height="7.8"/>
	<g>
		<path d="M69.2,51.5c0-0.9-0.6-1.5-1.6-1.5c-0.9,0-1.5,0.5-1.7,1.5H69.2z M70.3,53.2c-0.3,1-1.1,1.8-2.6,1.8c-1.9,0-2.9-1.4-2.9-3
			c0-1.8,1.2-3,2.8-3c1.8,0,2.8,1.5,2.7,3.3h-4.4c0.1,1.1,0.8,1.7,1.7,1.7c0.8,0,1.3-0.3,1.5-0.9H70.3z"/>
		<path d="M0.4,60c0-1.5,1.5-2.2,2.8-2.2c1.4,0,2.7,0.7,3,2.2H5c-0.2-0.9-1.1-1.2-1.8-1.2c-0.6,0-1.5,0.3-1.5,1.1
			c0,0.6,0.5,1,1.2,1.1l0.9,0.2C5,61.6,6.4,62,6.4,63.6c0,1.5-1.5,2.3-3,2.3c-1.8,0-3-1-3.2-2.6h1.2c0.2,1.1,0.9,1.6,2,1.6
			c1,0,1.7-0.5,1.7-1.2c0-0.8-0.8-1.1-1.6-1.3l-1-0.2C1.5,62,0.4,61.4,0.4,60"/>
		<path d="M9.4,65.9c-1.4,0-1.9-0.8-1.9-2.2V60h1.1v3.4c0,0.8,0.1,1.6,1.1,1.6c0.9,0,1.4-0.7,1.4-1.8V60h1.1v5.8h-1.1V65
			C10.9,65.6,10.3,65.9,9.4,65.9"/>
		<path d="M18,62.9c0-1.3-0.6-2.1-1.6-2.1c-0.9,0-1.6,0.6-1.6,2.1c0,1.4,0.7,2.1,1.6,2.1C17.4,65,18,64.2,18,62.9 M14.9,60.9
			c0.4-0.6,1-1,1.8-1c1.3,0,2.5,1.1,2.5,3c0,1.9-1.1,3-2.5,3c-0.8,0-1.4-0.4-1.8-1v2.7h-1.1V60h1.1V60.9z"/>
		<path d="M24.4,62.4c0-0.9-0.6-1.5-1.6-1.5c-0.9,0-1.5,0.5-1.7,1.5H24.4z M25.5,64.1c-0.3,1-1.1,1.8-2.6,1.8c-1.9,0-2.9-1.4-2.9-3
			c0-1.8,1.2-3,2.8-3c1.8,0,2.8,1.5,2.7,3.3h-4.4c0.1,1.1,0.8,1.7,1.7,1.7c0.8,0,1.3-0.3,1.5-0.9H25.5z"/>
		<path d="M29.2,61.2c-0.9,0-1.3,0.4-1.3,1.6v3h-1.1V60h1.1v1c0.3-0.7,0.9-1,1.6-1c0.1,0,0.2,0,0.3,0v1.2
			C29.5,61.2,29.3,61.2,29.2,61.2"/>
	</g>
	<path d="M31.8,65.8h-1.1V60h1.1V65.8z M31.8,59.3h-1.1V58h1.1V59.3z"/>
	<g>
		<path d="M37.4,62.9c0-1.4-0.8-2.1-1.6-2.1c-0.8,0-1.6,0.6-1.6,2.1c0,1.4,0.8,2.1,1.6,2.1C36.6,65,37.4,64.3,37.4,62.9 M35.7,65.9
			c-1.4,0-2.8-0.9-2.8-3c0-2.1,1.4-3,2.8-3c1.4,0,2.8,0.9,2.8,3C38.5,65,37.1,65.9,35.7,65.9"/>
		<path d="M42.1,61.2c-0.9,0-1.3,0.4-1.3,1.6v3h-1.1V60h1.1v1c0.3-0.7,0.9-1,1.6-1c0.1,0,0.2,0,0.3,0v1.2
			C42.5,61.2,42.3,61.2,42.1,61.2"/>
		<path d="M47.6,62.4c0-0.9-0.6-1.5-1.6-1.5c-0.9,0-1.5,0.5-1.7,1.5H47.6z M48.7,64.1c-0.3,1-1.1,1.8-2.6,1.8c-1.9,0-2.9-1.4-2.9-3
			c0-1.8,1.2-3,2.8-3c1.8,0,2.8,1.5,2.7,3.3h-4.4c0.1,1.1,0.8,1.7,1.7,1.7c0.8,0,1.3-0.3,1.5-0.9H48.7z"/>
		<path d="M53.4,62.9c0,1.3,0.6,2.1,1.6,2.1c0.9,0,1.6-0.7,1.6-2.1c0-1.4-0.7-2.1-1.6-2.1C54,60.9,53.4,61.6,53.4,62.9 M57.6,58v7.8
			h-1.1V65c-0.4,0.6-1,1-1.8,1c-1.3,0-2.5-1.1-2.5-3c0-1.9,1.1-3,2.5-3c0.8,0,1.4,0.4,1.8,1V58H57.6z"/>
	</g>
	<path d="M60.2,65.8h-1.1V60h1.1V65.8z M60.2,59.3h-1.1V58h1.1V59.3z"/>
	<g>
		<path d="M0.4,70.9c0-1.5,1.5-2.2,2.8-2.2c1.4,0,2.7,0.7,3,2.2H5c-0.2-0.9-1.1-1.2-1.8-1.2c-0.6,0-1.5,0.3-1.5,1.1
			c0,0.6,0.5,1,1.2,1.1l0.9,0.2c1.2,0.3,2.6,0.7,2.6,2.3c0,1.5-1.5,2.3-3,2.3c-1.8,0-3-1-3.2-2.6h1.2c0.2,1.1,0.9,1.6,2,1.6
			c1,0,1.7-0.5,1.7-1.2c0-0.8-0.8-1.1-1.6-1.3l-1-0.2C1.5,72.9,0.4,72.2,0.4,70.9"/>
		<path d="M9.1,69.4v1.5h1.1v0.8H9.1v3.3c0,0.6,0.1,0.7,0.7,0.7h0.5v0.9H9.4c-1.2,0-1.4-0.3-1.4-1.5v-3.4H7.1v-0.8H8v-1.5H9.1z"/>
		<path d="M13.1,76.8c-1.4,0-1.9-0.8-1.9-2.2v-3.7h1.1v3.4c0,0.8,0.1,1.6,1.1,1.6c0.9,0,1.4-0.7,1.4-1.8v-3.1h1.1v5.8h-1.1v-0.8
			C14.5,76.5,13.9,76.8,13.1,76.8"/>
		<path d="M18.3,73.8c0,1.3,0.6,2.1,1.6,2.1c0.9,0,1.6-0.7,1.6-2.1c0-1.4-0.7-2.1-1.6-2.1C18.9,71.8,18.3,72.5,18.3,73.8 M22.5,68.9
			v7.8h-1.1v-0.8c-0.4,0.6-1,1-1.8,1c-1.3,0-2.5-1.1-2.5-3c0-1.9,1.1-3,2.5-3c0.8,0,1.4,0.4,1.8,1v-2.9H22.5z"/>
	</g>
	<path d="M25.1,76.7H24v-5.8h1.1V76.7z M25.1,70.2H24v-1.2h1.1V70.2z"/>
	<path d="M33.4,74l-1.3-3.7L30.8,74H33.4z M32.8,68.9l2.9,7.8h-1.3L33.8,75h-3.4l-0.6,1.7h-1.2l2.9-7.8H32.8z"/>
	<polygon points="39.7,70.9 40.9,70.9 38.7,76.7 37.7,76.7 35.6,70.9 36.8,70.9 38.3,75.2 	"/>
	<g>
		<path d="M42.4,75.1c0,0.5,0.4,0.9,1.1,0.9c0.9,0,1.6-0.5,1.6-1.6v-0.4C43.3,74.1,42.4,74.4,42.4,75.1 M45.1,73.1V73
			c0-1-0.5-1.4-1.2-1.4c-0.8,0-1.2,0.4-1.3,1.1h-1.1c0.1-1.2,1.1-2,2.4-2c1.5,0,2.3,0.7,2.3,2.4c0,0.1,0,1.1,0,1.4
			c0,0.9,0.1,1.6,0.2,2.1h-1.1c0-0.2-0.1-0.4-0.1-0.8c-0.3,0.6-1,0.9-1.9,0.9c-1.2,0-2.1-0.6-2.1-1.7C41.2,73.7,42.8,73.4,45.1,73.1
			"/>
		<path d="M50.5,70.8c1.4,0,1.9,0.9,1.9,2.2v3.6h-1.1v-3.3c0-0.8-0.1-1.6-1.2-1.6c-1,0-1.4,0.7-1.4,1.8v3.1h-1.1v-5.8h1.1v0.8
			C49,71.2,49.6,70.8,50.5,70.8"/>
	</g>
	<polygon points="56.6,71.8 53.6,71.8 53.6,70.9 58,70.9 58,71.8 54.8,75.8 58,75.8 58,76.7 53.4,76.7 53.4,75.8 	"/>
	<g>
		<path d="M60,75.1c0,0.5,0.4,0.9,1.1,0.9c0.9,0,1.6-0.5,1.6-1.6v-0.4C61,74.1,60,74.4,60,75.1 M62.7,73.1V73c0-1-0.5-1.4-1.2-1.4
			c-0.8,0-1.2,0.4-1.3,1.1h-1.1c0.1-1.2,1.1-2,2.4-2c1.5,0,2.3,0.7,2.3,2.4c0,0.1,0,1.1,0,1.4c0,0.9,0.1,1.6,0.2,2.1h-1.1
			c0-0.2-0.1-0.4-0.1-0.8c-0.3,0.6-1,0.9-1.9,0.9c-1.2,0-2.1-0.6-2.1-1.7C58.8,73.7,60.5,73.4,62.7,73.1"/>
		<path d="M66.6,69.4v1.5h1.1v0.8h-1.1v3.3c0,0.6,0.1,0.7,0.7,0.7h0.5v0.9h-0.8c-1.2,0-1.4-0.3-1.4-1.5v-3.4h-0.9v-0.8h0.9v-1.5
			H66.6z"/>
	</g>
	<path d="M69.9,76.7h-1.1v-5.8h1.1V76.7z M69.9,70.2h-1.1v-1.2h1.1V70.2z"/>
	<g>
		<path d="M7.5,18.5c3.5,0,7.1-1.8,7.1-5.4s-3-4.7-6.1-5.3L6.3,7.3C4.8,7,3.6,6.3,3.6,4.9c0-1.7,2-2.4,3.4-2.4
			c1.7,0,3.6,0.6,4.1,2.8h3C13.5,1.6,10.8,0,7.2,0C4,0,0.5,1.7,0.5,5c0,3,2.3,4.5,5.1,5.1l2.2,0.4c1.7,0.3,3.7,0.9,3.7,2.8
			c0,1.7-1.7,2.7-3.8,2.7c-2.5,0-4-1.2-4.6-3.7H0C0.4,16.2,3.3,18.5,7.5,18.5"/>
	</g>
	<rect x="17.2" y="0.3" width="3.1" height="17.9"/>
	<g>
		<path d="M30.4,15.9c-2.5,0-4-1.2-4.6-3.7h-3.1c0.4,3.9,3.3,6.2,7.5,6.2c3.5,0,7.1-1.8,7.1-5.4c0-3.6-3-4.7-6.1-5.3l-2.2-0.4
			c-1.5-0.3-2.7-1-2.7-2.4c0-1.7,2-2.4,3.4-2.4c1.7,0,3.6,0.6,4.1,2.8h3C36.3,1.6,33.6,0,30,0c-3.3,0-6.7,1.7-6.7,5
			c0,3,2.3,4.5,5.1,5l2.2,0.4c1.7,0.3,3.7,0.9,3.7,2.8C34.3,15,32.6,15.9,30.4,15.9"/>
		<path d="M46.7,15.9c-2.5,0-4-1.2-4.6-3.7H39c0.4,3.9,3.3,6.2,7.5,6.2c3.5,0,7.1-1.8,7.1-5.4c0-3.6-3-4.7-6.1-5.3l-2.2-0.4
			c-1.5-0.3-2.7-1-2.7-2.4c0-1.7,2-2.4,3.4-2.4c1.8,0,3.6,0.6,4.1,2.8h3c-0.7-3.7-3.5-5.3-7-5.3c-3.3,0-6.8,1.7-6.8,5
			c0,3,2.3,4.5,5.1,5l2.2,0.4c1.7,0.3,3.7,0.9,3.7,2.8C50.5,15,48.8,15.9,46.7,15.9"/>
	</g>
	<path d="M59.7,11.6l2.7-7.7l2.7,7.7H59.7z M60.9,0.3l-6.7,17.9h3.2l1.4-4H66l1.4,4h3.4L64.2,0.3H60.9z"/>
	<rect x="0" y="23.8" width="70.9" height="2.6"/>
	<rect x="0" y="29.3" width="70.9" height="2.6"/>
</g>
</svg>
