<?xml version="1.0" encoding="UTF-8"?><svg id="Livello_1" xmlns="http://www.w3.org/2000/svg" viewBox="0 0 200.46 206.33"><defs><style>.cls-1{fill:#008c45;}.cls-2{fill:#fff;}.cls-3{fill:#cd212a;}.cls-4{fill:#173d69;}</style></defs><rect class="cls-2" x="2.47" y="195.7" width="197.37" height="10.01"/><rect class="cls-4" x="3.72" y="2.22" width="4.91" height="32.4"/><path class="cls-4" d="M20.26,30.86c1.66,1.44,3.45,2.54,5.31,3.26,1.87,.72,3.87,1.09,5.95,1.09,2.35,0,4.56-.41,6.57-1.22,2.01-.81,3.87-2.04,5.53-3.67,1.66-1.62,2.92-3.43,3.75-5.4,.83-1.96,1.25-4.14,1.25-6.46s-.42-4.47-1.24-6.45c-.83-1.97-2.08-3.81-3.73-5.45-1.64-1.64-3.47-2.89-5.44-3.71-1.97-.82-4.13-1.24-6.43-1.24s-4.51,.41-6.5,1.23c-1.99,.82-3.84,2.05-5.5,3.68-1.66,1.63-2.93,3.44-3.76,5.39s-1.25,4.09-1.25,6.36c0,2.58,.46,4.95,1.37,7.04,.91,2.09,2.3,3.96,4.12,5.55m16.02-1.13c-1.43,.58-3,.88-4.69,.88-1.56,0-3.04-.29-4.41-.86-1.37-.57-2.67-1.45-3.86-2.59-1.2-1.15-2.11-2.47-2.7-3.93-.6-1.46-.9-3.11-.9-4.89s.29-3.28,.87-4.7c.58-1.42,1.45-2.73,2.61-3.89,1.15-1.17,2.46-2.06,3.87-2.64,1.41-.58,2.98-.88,4.66-.88s3.25,.3,4.66,.88c1.41,.59,2.7,1.47,3.84,2.64,1.15,1.16,2.02,2.48,2.59,3.92,.57,1.44,.86,3.04,.86,4.76s-.29,3.29-.87,4.72c-.58,1.44-1.46,2.77-2.62,3.95-1.16,1.17-2.47,2.06-3.89,2.64"/><path class="cls-4" d="M69.77,32.7c.91,.83,1.96,1.46,3.12,1.87,1.16,.41,2.45,.62,3.85,.62,1.47,0,2.85-.25,4.09-.74,1.24-.49,2.37-1.23,3.36-2.2,.99-.97,1.74-2.08,2.24-3.31,.49-1.22,.74-2.6,.74-4.08,0-2.21-.61-4.11-1.83-5.64-1.21-1.52-3.15-2.83-5.77-3.89l-3.23-1.32c-1.17-.48-2.05-1.04-2.64-1.68-.58-.63-.88-1.35-.88-2.13,0-1.14,.45-2.1,1.34-2.84,.89-.76,2.02-1.15,3.37-1.15,1.1,0,2,.22,2.7,.67,.67,.39,1.38,1.24,2.11,2.51h0s3.97-2.34,3.97-2.34h.01s0-.02,0-.02c-1.04-1.81-2.31-3.19-3.76-4.09-1.45-.91-3.13-1.37-4.99-1.37-1.38,0-2.66,.21-3.81,.62-1.15,.41-2.21,1.04-3.13,1.86-.93,.82-1.63,1.74-2.1,2.76-.46,1.01-.7,2.14-.7,3.35,0,1.8,.56,3.4,1.66,4.77,1.11,1.37,2.78,2.53,4.99,3.46l3.12,1.3c.8,.35,1.51,.72,2.1,1.1,.58,.38,1.06,.79,1.43,1.24,.37,.44,.64,.92,.82,1.44,.17,.53,.26,1.11,.26,1.73,0,1.55-.51,2.86-1.51,3.87-1,1.01-2.27,1.53-3.79,1.53-.96,0-1.81-.18-2.54-.52-.73-.35-1.35-.88-1.85-1.57-.56-.73-.94-2.02-1.17-3.94h0s-4.96,1.08-4.96,1.08h-.01s0,.01,0,.01c.44,3.01,1.58,5.37,3.38,7.03"/><path class="cls-4" d="M96.92,30.86c1.66,1.44,3.45,2.54,5.31,3.26,1.87,.72,3.87,1.09,5.95,1.09,2.35,0,4.56-.41,6.57-1.22,2.01-.81,3.87-2.04,5.53-3.67,1.66-1.62,2.92-3.43,3.75-5.4,.83-1.96,1.25-4.14,1.25-6.46s-.42-4.47-1.24-6.45c-.83-1.97-2.08-3.81-3.73-5.45-1.64-1.64-3.47-2.89-5.44-3.71-1.97-.82-4.13-1.24-6.43-1.24s-4.51,.41-6.5,1.23c-1.99,.81-3.84,2.05-5.5,3.68-1.66,1.63-2.93,3.44-3.76,5.39-.83,1.95-1.25,4.09-1.25,6.36,0,2.58,.46,4.95,1.37,7.04,.91,2.09,2.3,3.96,4.12,5.55m-.55-12.53c0-1.7,.29-3.28,.87-4.7,.58-1.42,1.45-2.73,2.61-3.89,1.16-1.17,2.46-2.06,3.87-2.64,1.41-.58,2.98-.88,4.66-.88s3.25,.3,4.66,.88c1.41,.59,2.71,1.47,3.84,2.64,1.15,1.16,2.02,2.48,2.59,3.92,.57,1.44,.87,3.04,.87,4.76s-.29,3.29-.88,4.72c-.58,1.44-1.46,2.77-2.62,3.95-1.16,1.17-2.47,2.06-3.9,2.64-1.42,.58-3,.88-4.69,.88-1.55,0-3.04-.29-4.41-.86-1.37-.57-2.67-1.45-3.86-2.59-1.2-1.15-2.1-2.47-2.7-3.93-.6-1.46-.9-3.11-.9-4.89"/><polygon class="cls-4" points="136.32 11.97 159.91 36.58 159.93 36.61 159.93 2.22 155.02 2.22 155.02 24.7 131.43 .02 131.41 0 131.41 34.62 136.32 34.62 136.32 11.97"/><path class="cls-4" d="M198.96,12.01c-.82-1.97-2.08-3.81-3.73-5.45-1.64-1.64-3.47-2.89-5.44-3.71-1.97-.82-4.13-1.24-6.43-1.24s-4.51,.41-6.5,1.23c-1.99,.82-3.84,2.05-5.5,3.68-1.66,1.63-2.93,3.44-3.76,5.39s-1.26,4.09-1.26,6.36c0,2.58,.46,4.95,1.37,7.04,.91,2.09,2.3,3.96,4.12,5.55,1.66,1.44,3.44,2.54,5.31,3.26,1.87,.72,3.87,1.09,5.95,1.09,2.35,0,4.56-.41,6.57-1.22,2.01-.81,3.87-2.04,5.53-3.67,1.66-1.62,2.92-3.43,3.75-5.4,.83-1.96,1.25-4.14,1.25-6.46s-.42-4.47-1.24-6.45m-11.1,17.72c-1.42,.58-3,.88-4.69,.88-1.56,0-3.04-.29-4.41-.86-1.37-.57-2.67-1.45-3.86-2.59-1.2-1.15-2.11-2.47-2.7-3.93-.6-1.46-.9-3.11-.9-4.89s.29-3.28,.87-4.7c.58-1.42,1.45-2.73,2.61-3.89,1.15-1.17,2.46-2.06,3.87-2.64,1.41-.58,2.98-.88,4.66-.88s3.25,.3,4.66,.88c1.41,.59,2.7,1.47,3.84,2.64,1.15,1.16,2.02,2.48,2.59,3.92s.86,3.04,.86,4.76-.29,3.29-.87,4.72c-.58,1.44-1.46,2.77-2.62,3.95-1.16,1.17-2.47,2.06-3.9,2.64"/><polygon class="cls-4" points="8.63 67.51 19.51 67.51 19.51 62.9 8.63 62.9 8.63 55.14 19.91 55.14 19.91 50.53 3.72 50.53 3.72 82.92 8.63 82.92 8.63 67.51"/><path class="cls-4" d="M41.73,65.96c1.31-1.64,1.97-3.63,1.97-5.92,0-1.46-.26-2.8-.79-3.98-.52-1.18-1.32-2.23-2.36-3.12-.95-.8-2.21-1.41-3.75-1.81-1.54-.4-3.4-.6-5.53-.6h-5.74v32.4h4.91v-13.25h.86l9.24,13.25h0s6,0,6,0l-10.03-13.8c1.07-.23,2.04-.61,2.9-1.13,.86-.53,1.63-1.21,2.29-2.03m-2.81-5.86c0,1.76-.58,3.09-1.73,3.97-1.15,.88-2.9,1.32-5.2,1.32h-1.54v-10.25h1.73c2.24,0,3.94,.42,5.06,1.24,1.12,.82,1.68,2.07,1.68,3.72"/><rect class="cls-4" x="51.4" y="50.53" width="4.91" height="32.4"/><path class="cls-4" d="M67.25,79.82c1.18,1.23,2.52,2.16,3.98,2.77,1.46,.61,3.08,.92,4.81,.92s3.35-.31,4.82-.92c1.46-.61,2.81-1.54,4-2.77,1.06-1.1,1.86-2.37,2.39-3.77,.53-1.4,.8-2.97,.8-4.67v-20.85h-4.91v19.51c0,2.81-.46,4.86-1.36,6.09-.67,.92-1.5,1.63-2.45,2.09-.95,.46-2.06,.7-3.29,.7s-2.32-.23-3.27-.7c-.95-.46-1.77-1.16-2.45-2.09-.9-1.28-1.36-3.33-1.36-6.09v-19.51h-4.91v20.85c0,1.7,.27,3.27,.8,4.67,.53,1.4,1.33,2.67,2.39,3.77"/><polygon class="cls-4" points="95.79 50.53 95.79 82.92 110.21 82.92 110.21 78.31 100.69 78.31 100.69 50.53 95.79 50.53"/><rect class="cls-4" x="114.82" y="50.53" width="4.91" height="32.4"/><polygon class="cls-4" points="14.21 133.69 28.75 98.85 28.76 98.84 23.39 98.84 14.32 121.25 5.37 98.85 5.37 98.84 0 98.84 14.2 133.66 14.21 133.69"/><polygon class="cls-4" points="32.76 131.24 50.64 131.24 50.64 126.62 37.67 126.62 37.67 115.82 50.27 115.82 50.27 111.21 37.67 111.21 37.67 103.45 50.64 103.45 50.64 98.84 32.76 98.84 32.76 131.24"/><polygon class="cls-4" points="61.95 108.59 85.54 133.2 85.56 133.22 85.56 98.84 80.65 98.84 80.65 121.32 57.06 96.64 57.04 96.62 57.04 131.24 61.95 131.24 61.95 108.59"/><polygon class="cls-4" points="93.29 131.24 111.18 131.24 111.18 126.62 98.2 126.62 98.2 115.82 110.8 115.82 110.8 111.21 98.2 111.21 98.2 103.45 111.18 103.45 111.18 98.84 93.29 98.84 93.29 131.24"/><polygon class="cls-4" points="139.09 98.84 117.74 98.84 117.74 103.45 131.02 103.45 115.14 131.22 115.13 131.24 138.73 131.24 138.73 126.62 123.2 126.62 139.08 98.85 139.09 98.84"/><rect class="cls-4" x="144.41" y="98.84" width="4.91" height="32.4"/><path class="cls-4" d="M169.39,96.79l-16.03,34.43v.02s5.28,0,5.28,0l3.61-7.86h13.84l3.39,7.86h0s5.37,0,5.37,0l-15.46-34.42v-.02Zm-.09,11l4.78,10.97h-9.8l5.01-10.97Z"/><path class="cls-4" d="M20.37,167.28h8.07c-.11,1.13-.44,2.19-.97,3.16-.53,.97-1.28,1.88-2.24,2.69-1.9,1.61-4.08,2.43-6.47,2.43-1.41,0-2.78-.27-4.08-.81-1.3-.54-2.57-1.36-3.78-2.43-1.28-1.16-2.26-2.5-2.91-3.97-.64-1.48-.97-3.14-.97-4.93s.29-3.35,.87-4.8c.58-1.45,1.45-2.76,2.61-3.92,1.15-1.17,2.46-2.07,3.89-2.66,1.43-.59,3.01-.88,4.72-.88,1.9,0,3.67,.45,5.28,1.32,1.61,.88,3.09,2.22,4.42,3.98h0s3.5-3.34,3.5-3.34h0c-2.02-2.32-4.1-4.02-6.19-5.04-2.19-1.03-4.58-1.55-7.09-1.55-2.35,0-4.55,.41-6.54,1.23-1.99,.82-3.83,2.06-5.47,3.7-1.64,1.63-2.88,3.46-3.7,5.44-.82,1.98-1.23,4.17-1.23,6.51s.41,4.45,1.21,6.41c.8,1.96,2.03,3.79,3.63,5.43,1.61,1.63,3.4,2.87,5.34,3.68,1.93,.81,4.05,1.23,6.31,1.23s4.45-.43,6.35-1.27c1.9-.84,3.63-2.12,5.12-3.81,1.32-1.51,2.28-3.14,2.83-4.87,.57-1.87,.86-4.04,.86-6.46v-1.08h-13.4v4.62Z"/><rect class="cls-4" x="39.89" y="147.15" width="4.91" height="32.4"/><path class="cls-4" d="M71.63,166.66c0,2.81-.46,4.86-1.36,6.09-.67,.92-1.5,1.63-2.45,2.09-.95,.46-2.06,.7-3.29,.7s-2.32-.23-3.27-.7c-.95-.46-1.77-1.17-2.45-2.09-.9-1.28-1.36-3.33-1.36-6.09v-19.51h-4.91v20.85c0,1.7,.27,3.27,.8,4.67,.53,1.4,1.33,2.67,2.39,3.77,1.18,1.22,2.52,2.16,3.98,2.77,1.46,.61,3.08,.92,4.81,.92s3.35-.31,4.82-.92c1.46-.61,2.81-1.54,4-2.77,1.06-1.1,1.86-2.37,2.39-3.77,.53-1.4,.8-2.97,.8-4.67v-20.85h-4.91v19.51Z"/><polygon class="cls-4" points="89.18 147.15 84.27 147.15 84.27 179.54 98.7 179.54 98.7 174.93 89.18 174.93 89.18 147.15"/><rect class="cls-4" x="103.31" y="147.15" width="4.91" height="32.4"/><path class="cls-4" d="M128.3,145.1l-16.03,34.43v.02s5.28,0,5.28,0l3.61-7.86h13.84l3.39,7.86h0s5.37,0,5.37,0l-15.46-34.43v-.02Zm-.09,11l4.78,10.97h-9.8l5.01-10.97Z"/><rect class="cls-1" x="2.47" y="195.7" width="65.93" height="10.01"/><rect class="cls-3" x="134.25" y="195.7" width="65.59" height="10.01"/><path class="cls-4" d="M200.21,195.09H1.85v11.24H200.46v-11.24h-.25ZM2.97,205.21v-9.01H199.34v9.01H2.97Z"/></svg>